# xmcd
#
# Track frame offsets:
#	150
#	15484
#	36050
#	49053
#	61192
#	74683
#	90142
#	106542
#	124163
#	147730
#	165796
#	183641
#	204383
#	226842
#	244774
#	262407
#	281031
#	297300
#	313224
#	326758
#	342004
#
# Disc length: 4733 seconds
#
# Revision: 2
# Processed by: cddbd v1.5.2PL0 Copyright (c) Steve Scherf et al.
# Submitted via: EasyCDDAExtractor 2010.4.0.0
#
DISCID=34127b15
DTITLE=Bryan Ferry - The Best Of Bryan Ferry
DYEAR=2009
DGENRE=Pop
TTITLE0=A Hard Rain's A-Gonna Fall
TTITLE1=The 'In' Crowd
TTITLE2=Smoke Gets In Your Eyes
TTITLE3=You Go To My Head
TTITLE4=Let's Stick Together
TTITLE5=Price Of Love
TTITLE6=This Is Tomorrow
TTITLE7=Tokyo Joe
TTITLE8=Can't Let Go
TTITLE9=Slave To Love
TTITLE10=Don't Stop The Dance
TTITLE11=Windswept
TTITLE12=Limbo
TTITLE13=Kiss And Tell
TTITLE14=I Put A Spell On You
TTITLE15=Don't Want To Know
TTITLE16=The Way You Look Tonight
TTITLE17=Goddess Of Love
TTITLE18=The Times They Are A-Changin'
TTITLE19=I Don't Want To Go On Without You
TTITLE20=A Fool For Love (Alternative Version)
EXTD=
EXTT0=
EXTT1=
EXTT2=
EXTT3=
EXTT4=
EXTT5=
EXTT6=
EXTT7=
EXTT8=
EXTT9=
EXTT10=
EXTT11=
EXTT12=
EXTT13=
EXTT14=
EXTT15=
EXTT16=
EXTT17=
EXTT18=
EXTT19=
EXTT20=
PLAYORDER=
